<svg width="356" height="256" viewBox="0 0 356 256" fill="none" xmlns="http://www.w3.org/2000/svg">
<g opacity="0.81">
<path opacity="0.81" d="M191.075 142.571H174.734C174.296 142.571 173.938 142.213 173.938 141.775C173.938 141.338 174.296 140.98 174.734 140.98H191.075C191.512 140.98 191.87 141.338 191.87 141.775C191.87 142.221 191.512 142.571 191.075 142.571Z" fill="#848D99" fill-opacity="0.44"/>
<path opacity="0.81" d="M191.075 159.565H174.734C174.296 159.565 173.938 159.207 173.938 158.769C173.938 158.332 174.296 157.974 174.734 157.974H191.075C191.512 157.974 191.87 158.332 191.87 158.769C191.87 159.207 191.512 159.565 191.075 159.565Z" fill="#848D99" fill-opacity="0.44"/>
<g opacity="0.81">
<g opacity="0.81">
<g opacity="0.81">
<path opacity="0.81" d="M203.413 176.716H102.482C101.289 176.716 100.326 175.745 100.326 174.56V122.173C100.326 120.98 101.297 120.017 102.482 120.017H203.413C204.607 120.017 205.569 120.988 205.569 122.173V174.56C205.569 175.753 204.599 176.716 203.413 176.716ZM102.482 121.608C102.172 121.608 101.918 121.863 101.918 122.173V174.56C101.918 174.87 102.172 175.125 102.482 175.125H203.413C203.724 175.125 203.978 174.87 203.978 174.56V122.173C203.978 121.863 203.724 121.608 203.413 121.608H102.482V121.608Z" fill="#848D99" fill-opacity="0.44"/>
<path opacity="0.66" d="M203.413 176.716H102.482C101.289 176.716 100.326 175.745 100.326 174.56V122.173C100.326 120.98 101.297 120.017 102.482 120.017H203.413C204.607 120.017 205.569 120.988 205.569 122.173V174.56C205.569 175.753 204.599 176.716 203.413 176.716ZM102.482 121.608C102.172 121.608 101.918 121.863 101.918 122.173V174.56C101.918 174.87 102.172 175.125 102.482 175.125H203.413C203.724 175.125 203.978 174.87 203.978 174.56V122.173C203.978 121.863 203.724 121.608 203.413 121.608H102.482V121.608Z" fill="#848D99" fill-opacity="0.44"/>
</g>
</g>
<path opacity="0.81" d="M191.074 134.329H113.198C112.761 134.329 112.403 133.971 112.403 133.534C112.403 133.096 112.761 132.738 113.198 132.738H191.074C191.512 132.738 191.87 133.096 191.87 133.534C191.87 133.971 191.512 134.329 191.074 134.329Z" fill="#848D99" fill-opacity="0.44"/>
<path opacity="0.81" d="M191.074 150.821H113.198C112.761 150.821 112.403 150.463 112.403 150.026C112.403 149.588 112.761 149.23 113.198 149.23H191.074C191.512 149.23 191.87 149.588 191.87 150.026C191.87 150.463 191.512 150.821 191.074 150.821Z" fill="#848D99" fill-opacity="0.44"/>
<path opacity="0.81" d="M155.187 142.571H113.198C112.761 142.571 112.403 142.213 112.403 141.775C112.403 141.338 112.761 140.98 113.198 140.98H155.187C155.625 140.98 155.983 141.338 155.983 141.775C155.983 142.221 155.625 142.571 155.187 142.571Z" fill="#848D99" fill-opacity="0.44"/>
<path opacity="0.81" d="M155.187 159.565H113.198C112.761 159.565 112.403 159.207 112.403 158.769C112.403 158.332 112.761 157.974 113.198 157.974H155.187C155.625 157.974 155.983 158.332 155.983 158.769C155.983 159.207 155.625 159.565 155.187 159.565Z" fill="#848D99" fill-opacity="0.44"/>
<path opacity="0.81" d="M141.512 167.432H113.198C112.761 167.432 112.403 167.074 112.403 166.636C112.403 166.198 112.761 165.84 113.198 165.84H141.512C141.949 165.84 142.307 166.198 142.307 166.636C142.307 167.074 141.957 167.432 141.512 167.432Z" fill="#848D99" fill-opacity="0.44"/>
</g>
</g>
<g opacity="0.81">
<path opacity="0.81" d="M34.7174 91.6401H16.3483C15.9107 91.6401 15.5527 91.2821 15.5527 90.8446C15.5527 90.407 15.9107 90.049 16.3483 90.049H34.7174C35.155 90.049 35.513 90.407 35.513 90.8446C35.513 91.2821 35.155 91.6401 34.7174 91.6401Z" fill="#848D99" fill-opacity="0.44"/>
<path opacity="0.81" d="M34.7174 72.547H16.3483C15.9107 72.547 15.5527 72.189 15.5527 71.7515C15.5527 71.3139 15.9107 70.9559 16.3483 70.9559H34.7174C35.155 70.9559 35.513 71.3139 35.513 71.7515C35.513 72.189 35.155 72.547 34.7174 72.547Z" fill="#848D99" fill-opacity="0.44"/>
<g opacity="0.81">
<g opacity="0.81">
<g opacity="0.81">
<path opacity="0.81" d="M116.094 115.204H2.31486C1.12154 115.204 0.158936 114.233 0.158936 113.048V53.8355C0.158936 52.6421 1.1295 51.6795 2.31486 51.6795H116.094C117.287 51.6795 118.25 52.6501 118.25 53.8355V113.048C118.25 114.233 117.279 115.204 116.094 115.204ZM2.31486 53.2627C2.0046 53.2627 1.75003 53.5172 1.75003 53.8275V113.04C1.75003 113.35 2.0046 113.605 2.31486 113.605H116.094C116.404 113.605 116.659 113.35 116.659 113.04V53.8275C116.659 53.5172 116.404 53.2627 116.094 53.2627H2.31486Z" fill="#848D99" fill-opacity="0.44"/>
<path opacity="0.66" d="M116.094 115.204H2.31486C1.12154 115.204 0.158936 114.233 0.158936 113.048V53.8355C0.158936 52.6421 1.1295 51.6795 2.31486 51.6795H116.094C117.287 51.6795 118.25 52.6501 118.25 53.8355V113.048C118.25 114.233 117.279 115.204 116.094 115.204ZM2.31486 53.2627C2.0046 53.2627 1.75003 53.5172 1.75003 53.8275V113.04C1.75003 113.35 2.0046 113.605 2.31486 113.605H116.094C116.404 113.605 116.659 113.35 116.659 113.04V53.8275C116.659 53.5172 116.404 53.2627 116.094 53.2627H2.31486Z" fill="#848D99" fill-opacity="0.44"/>
</g>
</g>
<path opacity="0.81" d="M103.874 100.899H16.3483C15.9107 100.899 15.5527 100.541 15.5527 100.104C15.5527 99.6661 15.9107 99.3081 16.3483 99.3081H103.874C104.312 99.3081 104.67 99.6661 104.67 100.104C104.67 100.549 104.312 100.899 103.874 100.899Z" fill="#848D99" fill-opacity="0.44"/>
<path opacity="0.81" d="M103.874 82.3717H16.3483C15.9107 82.3717 15.5527 82.0137 15.5527 81.5762C15.5527 81.1386 15.9107 80.7806 16.3483 80.7806H103.874C104.312 80.7806 104.67 81.1386 104.67 81.5762C104.67 82.0137 104.312 82.3717 103.874 82.3717Z" fill="#848D99" fill-opacity="0.44"/>
<path opacity="0.81" d="M103.874 91.6401H56.6825C56.245 91.6401 55.887 91.2821 55.887 90.8446C55.887 90.407 56.245 90.049 56.6825 90.049H103.874C104.312 90.049 104.67 90.407 104.67 90.8446C104.67 91.2821 104.312 91.6401 103.874 91.6401Z" fill="#848D99" fill-opacity="0.44"/>
<path opacity="0.81" d="M103.874 72.547H56.6825C56.245 72.547 55.887 72.189 55.887 71.7515C55.887 71.3139 56.245 70.9559 56.6825 70.9559H103.874C104.312 70.9559 104.67 71.3139 104.67 71.7515C104.67 72.189 104.312 72.547 103.874 72.547Z" fill="#848D99" fill-opacity="0.44"/>
<path opacity="0.81" d="M103.874 63.6997H72.0526C71.6151 63.6997 71.2571 63.3417 71.2571 62.9041C71.2571 62.4666 71.6151 62.1086 72.0526 62.1086H103.874C104.312 62.1086 104.67 62.4666 104.67 62.9041C104.67 63.3417 104.312 63.6997 103.874 63.6997Z" fill="#848D99" fill-opacity="0.44"/>
</g>
</g>
<path d="M162.042 206.325H98.3687V255.436H162.042V206.325Z" fill="#EBEBEB"/>
<path d="M146.092 255.092C146.006 255.092 145.933 244.142 145.933 230.644C145.933 217.139 146.006 206.195 146.092 206.195C146.177 206.195 146.251 217.139 146.251 230.644C146.251 244.142 146.177 255.092 146.092 255.092Z" fill="#E0E0E0"/>
<path d="M156.644 244.259H151.765V249.78H156.644V244.259Z" fill="#FAFAFA"/>
<path d="M125.03 206.453H117.798V216.932H125.03V206.453Z" fill="#E0E0E0"/>
<path d="M125.03 244.81H117.798V255.289H125.03V244.81Z" fill="#E0E0E0"/>
<path d="M277.584 194.012H197.293V255.937H277.584V194.012Z" fill="#EBEBEB"/>
<path d="M257.464 255.497C257.378 255.497 257.305 241.693 257.305 224.673C257.305 207.646 257.378 193.842 257.464 193.842C257.549 193.842 257.623 207.64 257.623 224.673C257.623 241.699 257.556 255.497 257.464 255.497Z" fill="#E0E0E0"/>
<path d="M270.773 241.839H264.617V248.797H270.773V241.839Z" fill="#FAFAFA"/>
<path d="M230.906 194.171H221.785V207.383H230.906V194.171Z" fill="#E0E0E0"/>
<path d="M230.906 242.537H221.785V255.748H230.906V242.537Z" fill="#E0E0E0"/>
<path d="M46.0667 195.836C49.3192 194.161 53.1402 193.941 56.7472 194.54C58.6853 194.858 60.7089 195.438 62.0233 196.893C63.3438 198.348 63.5945 200.91 62.0783 202.163C61.1796 202.909 59.9202 203.019 58.7525 203.007C55.928 202.976 52.7978 202.475 50.5358 204.175C49.2458 205.147 48.3899 206.755 46.8554 207.232C45.3515 207.696 43.6519 206.81 42.851 205.452C42.0501 204.095 42.0256 202.396 42.3986 200.861C42.4047 200.861 42.796 197.523 46.0667 195.836Z" fill="#EBEBEB"/>
<path d="M38.6203 181.462C40.6072 184.299 44.471 183.357 46.2623 181.627C48.0536 179.897 48.8117 177.384 49.4964 174.988C51.0676 169.516 52.6572 163.781 51.4895 158.206C51.141 156.543 50.5174 154.88 49.3436 153.645C48.1759 152.41 46.3724 151.677 44.7278 152.111C42.7776 152.624 41.5732 154.532 40.6928 156.347C38.119 161.678 36.7618 167.59 36.7373 173.514C36.7373 176.284 37.0613 179.182 38.6203 181.462Z" fill="#EBEBEB"/>
<path d="M33.1679 185.531C35.326 182.969 35.7356 179.234 34.7758 176.03C33.8159 172.821 31.6456 170.094 29.1451 167.869C26.2167 165.258 22.7686 163.222 19.0638 161.92C17.6087 161.407 16.0681 161.003 14.5336 161.15C12.9929 161.297 11.4462 162.085 10.7309 163.449C9.66713 165.472 10.6881 167.924 11.7886 169.929C13.7266 173.457 15.9397 176.831 18.4096 180.01C20.3965 182.566 22.6647 185.091 25.6909 186.246C28.7172 187.402 31.8535 187.267 33.4613 185.17" fill="#EBEBEB"/>
<path d="M38.485 224.278C38.5217 224.278 38.5829 223.82 38.6623 222.988C38.754 222.047 38.8702 220.873 39.0047 219.467C39.1698 217.987 39.3837 216.227 39.7933 214.307C40.203 212.393 40.8449 210.321 41.6702 208.212C42.5261 206.121 43.5655 204.22 44.7821 202.697C45.9926 201.169 47.3926 200.062 48.7131 199.426C50.0276 198.778 51.2075 198.509 52.0267 198.393C52.852 198.308 53.3106 198.247 53.3106 198.21C53.3106 198.173 52.852 198.167 52.0023 198.192C51.1647 198.247 49.9358 198.461 48.5481 199.09C47.1542 199.708 45.6685 200.833 44.3969 202.392C43.1192 203.944 42.0432 205.889 41.175 208.016C40.3375 210.156 39.7016 212.253 39.3104 214.209C38.9191 216.159 38.7418 217.945 38.6257 219.436C38.5156 220.928 38.4728 222.139 38.4484 222.976C38.4422 223.808 38.4484 224.272 38.485 224.278Z" fill="#E0E0E0"/>
<path d="M38.7313 221.566C38.7496 221.566 38.7618 221.358 38.768 220.967C38.768 220.515 38.768 219.952 38.7618 219.255C38.7557 217.77 38.7557 215.624 38.8352 212.97C38.9636 207.664 39.4221 201.954 40.3086 193.896C41.1462 186.321 42.265 177.511 43.451 171.783C43.7078 170.481 43.9584 169.307 44.203 168.28C44.4353 167.253 44.6309 166.366 44.8204 165.645C44.9855 164.966 45.1139 164.416 45.2178 163.982C45.3034 163.603 45.3401 163.395 45.3218 163.389C45.3034 163.383 45.2301 163.579 45.1139 163.951C44.9855 164.379 44.8204 164.924 44.6187 165.59C44.3986 166.299 44.1724 167.186 43.9156 168.207C43.6466 169.228 43.3654 170.401 43.0842 171.697C41.9104 176.888 40.6754 184.145 39.7828 192.215C38.8963 200.285 38.499 207.633 38.4623 212.952C38.4317 215.612 38.4867 217.764 38.554 219.249C38.5968 219.946 38.6335 220.509 38.6579 220.961C38.6885 221.358 38.7129 221.566 38.7313 221.566Z" fill="#E0E0E0"/>
<path d="M38.7679 207.397C38.8045 207.397 38.7984 206.761 38.7556 205.612C38.6884 204.462 38.5294 202.806 38.2054 200.77C37.863 198.74 37.3801 196.331 36.6281 193.715C36.3041 192.516 35.5337 189.649 33.6752 185.363C31.2298 179.556 27.9039 174.811 25.0122 171.871C24.3336 171.088 23.5755 170.526 22.9764 169.975C22.6646 169.713 22.3895 169.45 22.1082 169.236C21.827 169.04 21.5641 168.857 21.3196 168.692C20.3659 168.044 19.834 167.695 19.8156 167.726C19.73 167.842 21.9493 169.144 24.7493 172.127C27.5371 175.099 30.7712 179.812 33.1983 185.571C34.5495 188.695 35.4971 191.477 36.1635 193.843C36.9399 196.435 37.4534 198.82 37.8386 200.831C38.2054 202.842 38.4194 204.487 38.5478 205.624C38.6517 206.761 38.7312 207.397 38.7679 207.397Z" fill="#E0E0E0"/>
<path d="M24.1184 230.24L25.5429 249.693H50.5293L51.9537 230.24H24.1184Z" fill="#EBEBEB"/>
<path d="M54.9319 222.57H21.7043V230.236H54.9319V222.57Z" fill="#EBEBEB"/>
<path d="M21.7039 248.953V251.074H23.2689H54.3873V248.953H21.7039Z" fill="#E0E0E0"/>
<path d="M24.7977 254.581L23.2693 250.839H53.1955L51.4103 254.581H24.7977Z" fill="#E0E0E0"/>
<path d="M51.4902 236.592C51.4963 236.598 51.4535 236.66 51.374 236.77C51.2762 236.904 51.154 237.063 51.0011 237.265C50.6465 237.717 50.1574 238.341 49.5461 239.13L49.4788 239.215L49.4177 239.13C48.5006 237.864 47.2779 236.171 45.8412 234.184H46.0491C44.9853 235.688 43.7993 237.369 42.5276 239.172L42.4176 239.331L42.2953 239.185C40.9931 237.638 39.587 235.957 38.1197 234.214L38.3581 234.208C38.2848 234.3 38.2053 234.398 38.1258 234.495C36.8297 236.122 35.5764 237.693 34.3904 239.178L34.2681 239.337L34.152 239.172C32.8865 237.381 31.7004 235.7 30.6305 234.19L30.8384 234.202C29.1021 236.183 27.6287 237.858 26.4977 239.148L26.4182 239.233L26.3571 239.136C25.7824 238.176 25.33 237.405 24.9999 236.855C24.8593 236.605 24.7431 236.409 24.6514 236.25C24.5719 236.109 24.5352 236.036 24.5475 236.036C24.5536 236.03 24.6025 236.097 24.6942 236.232C24.7981 236.385 24.9204 236.58 25.0794 236.819C25.4278 237.363 25.9047 238.115 26.5038 239.062L26.3693 239.05C27.482 237.748 28.9309 236.048 30.6366 234.049L30.7467 233.921L30.8445 234.055C31.9266 235.565 33.1188 237.234 34.3965 239.019L34.1581 239.013C35.338 237.528 36.5913 235.95 37.8813 234.324C37.9608 234.226 38.0402 234.129 38.1136 234.037L38.2298 233.89L38.352 234.037C39.8132 235.785 41.2193 237.467 42.5154 239.013L42.2831 239.026C43.5669 237.234 44.7652 235.565 45.8412 234.061L45.9451 233.915L46.0491 234.061C47.4552 236.073 48.6535 237.785 49.5522 239.062L49.4238 239.056C50.0596 238.292 50.567 237.681 50.94 237.24C51.105 237.051 51.2395 236.898 51.3435 236.77C51.4352 236.641 51.4841 236.592 51.4902 236.592Z" fill="#F5F5F5"/>
<path d="M52.3019 230.11C52.3019 230.195 46.0415 230.263 38.3139 230.263C30.5863 230.263 24.3259 230.195 24.3259 230.11C24.3259 230.024 30.5863 229.957 38.3139 229.957C46.0354 229.957 52.3019 230.024 52.3019 230.11Z" fill="#F5F5F5"/>
<path d="M227.619 9.50807L222.496 9.53552L222.632 35.0293L227.756 35.0019L227.619 9.50807Z" fill="#E0E0E0"/>
<path d="M191.376 9.57881L178.11 9.64984L178.185 23.7234L191.452 23.6524L191.376 9.57881Z" fill="#EBEBEB"/>
<path d="M204.583 9.50471L191.316 9.57574L191.392 23.6493L204.658 23.5783L204.583 9.50471Z" fill="#F5F5F5"/>
<path d="M178.126 13.5315C186.942 13.6048 195.782 13.5559 204.598 13.4092C204.782 13.4092 204.776 13.128 204.598 13.128C195.782 13.0791 186.942 13.1219 178.126 13.2869C177.974 13.293 177.974 13.5315 178.126 13.5315Z" fill="#E0E0E0"/>
<path d="M193.946 23.4181L169.84 23.5473L169.902 35.0165L194.008 34.8873L193.946 23.4181Z" fill="#EBEBEB"/>
<path d="M217.935 23.2893L193.829 23.4184L193.891 34.8876L217.997 34.7584L217.935 23.2893Z" fill="#F5F5F5"/>
<path d="M169.856 26.7375C185.867 26.9209 201.94 26.7558 217.951 26.4991C218.135 26.4929 218.129 26.2178 217.951 26.2178C201.94 26.1322 185.867 26.1445 169.856 26.4929C169.697 26.4991 169.697 26.7314 169.856 26.7375Z" fill="#E0E0E0"/>
<path d="M254.23 35.0184H160.838V39.1267H254.23V35.0184Z" fill="#E0E0E0"/>
<path d="M179.918 36.9922H176.128V51.0107H179.918V36.9922Z" fill="#E0E0E0"/>
<path d="M236.512 36.9922H232.721V51.0107H236.512V36.9922Z" fill="#E0E0E0"/>
<path d="M232.618 1.66902e-05L227.495 0.0274658L227.683 35.0891L232.806 35.0616L232.618 1.66902e-05Z" fill="#EBEBEB"/>
<path d="M240.621 6.53033L232.661 6.573L232.813 34.9891L240.773 34.9464L240.621 6.53033Z" fill="#F5F5F5"/>
<path d="M240.565 12.0054C240.565 12.0788 238.78 12.146 236.585 12.146C234.384 12.146 232.605 12.0849 232.605 12.0054C232.605 11.9321 234.384 11.8648 236.585 11.8648C238.786 11.8709 240.565 11.9321 240.565 12.0054Z" fill="#E0E0E0"/>
<path d="M240.565 10.8105C240.565 10.8839 238.78 10.9511 236.585 10.9511C234.384 10.9511 232.605 10.89 232.605 10.8105C232.605 10.7372 234.384 10.6699 236.585 10.6699C238.786 10.6699 240.565 10.7311 240.565 10.8105Z" fill="#E0E0E0"/>
<path d="M240.565 30.6715C240.565 30.7449 238.78 30.8121 236.585 30.8121C234.384 30.8121 232.605 30.751 232.605 30.6715C232.605 30.5981 234.384 30.5309 236.585 30.5309C238.786 30.537 240.565 30.5981 240.565 30.6715Z" fill="#E0E0E0"/>
<path d="M240.565 29.4755C240.565 29.5488 238.78 29.6161 236.585 29.6161C234.384 29.6161 232.605 29.5549 232.605 29.4755C232.605 29.4021 234.384 29.3348 236.585 29.3348C238.786 29.3348 240.565 29.396 240.565 29.4755Z" fill="#E0E0E0"/>
<path d="M236.714 26.8708C236.64 26.8708 236.573 24.0035 236.573 20.4699C236.573 16.9362 236.634 14.0689 236.714 14.0689C236.793 14.0689 236.854 16.9362 236.854 20.4699C236.854 24.0035 236.793 26.8708 236.714 26.8708Z" fill="#E0E0E0"/>
<path d="M249.32 13.5081H240.657V34.9547H249.32V13.5081Z" fill="#EBEBEB"/>
<path d="M229.977 7.46062C230.79 7.46062 231.45 6.80096 231.45 5.98724C231.45 5.17351 230.79 4.51385 229.977 4.51385C229.163 4.51385 228.503 5.17351 228.503 5.98724C228.503 6.80096 229.163 7.46062 229.977 7.46062Z" fill="#E0E0E0"/>
<path d="M230.435 10.0413H229.524V30.9009H230.435V10.0413Z" fill="#E0E0E0"/>
<path d="M280.34 255.602C280.34 255.687 221.582 255.761 149.111 255.761C76.6223 255.761 17.8704 255.687 17.8704 255.602C17.8704 255.516 76.6161 255.443 149.111 255.443C221.576 255.443 280.34 255.516 280.34 255.602Z" fill="#263238"/>
<path d="M261.455 239.598C261.449 239.592 261.486 239.506 261.566 239.341C261.651 239.157 261.767 238.913 261.914 238.601C262.207 237.947 262.593 236.963 262.929 235.642C263.601 233.013 263.84 228.997 262.843 224.222C262.379 221.831 261.633 219.27 260.728 216.555C259.829 213.835 258.79 210.943 257.94 207.825C257.096 204.713 256.436 201.332 256.565 197.787C256.693 194.235 257.745 190.689 258.9 187.161C260.055 183.627 261.248 180.173 261.602 176.701C262.006 173.234 261.266 169.829 259.683 167.041C258.154 164.223 256.228 161.808 254.786 159.314C253.324 156.825 252.407 154.264 251.845 151.886C250.751 147.086 251.136 143.039 251.661 140.374C252.23 137.696 252.86 136.308 252.86 136.308C252.866 136.308 252.841 136.4 252.786 136.577C252.725 136.767 252.646 137.029 252.542 137.353C252.328 138.038 252.053 139.059 251.796 140.398C251.319 143.057 250.977 147.074 252.096 151.824C252.67 154.178 253.587 156.703 255.048 159.161C256.485 161.631 258.417 164.027 259.982 166.882C261.596 169.701 262.373 173.216 261.963 176.743C261.602 180.277 260.404 183.756 259.248 187.283C258.093 190.811 257.054 194.314 256.925 197.805C256.797 201.296 257.439 204.64 258.27 207.74C259.108 210.845 260.135 213.737 261.021 216.464C261.92 219.19 262.654 221.77 263.106 224.179C264.078 228.984 263.797 233.044 263.076 235.679C262.709 236.999 262.305 237.984 261.987 238.632C261.828 238.937 261.7 239.176 261.608 239.359C261.511 239.518 261.462 239.604 261.455 239.598Z" fill="#263238"/>
<path d="M256.741 161.782C256.741 161.782 253.813 152.428 259.064 146.95C259.248 146.761 259.572 146.847 259.621 147.109C259.902 148.65 260.251 153.358 256.741 161.782Z" fill="#C8E2FA"/>
<path d="M258.496 150.061C258.545 150.073 258.459 150.727 258.3 151.785C258.111 152.971 257.884 154.371 257.634 155.912C257.389 157.452 257.169 158.852 256.98 160.038C256.821 161.096 256.723 161.75 256.668 161.744C256.619 161.738 256.625 161.078 256.723 160.008C256.821 158.938 257.01 157.471 257.273 155.857C257.536 154.243 257.817 152.788 258.05 151.742C258.27 150.691 258.447 150.049 258.496 150.061Z" fill="#263238"/>
<path d="M260.177 183.844C260.177 183.844 261.968 174.203 269.17 171.818C269.42 171.733 269.665 171.965 269.585 172.222C269.109 173.72 267.219 178.042 260.177 183.844Z" fill="#C8E2FA"/>
<path d="M267.207 174.304C267.244 174.335 266.865 174.879 266.223 175.741C265.496 176.701 264.646 177.832 263.704 179.079C262.769 180.326 261.919 181.457 261.198 182.423C260.562 183.285 260.171 183.817 260.128 183.787C260.085 183.762 260.403 183.175 260.99 182.277C261.577 181.378 262.433 180.167 263.417 178.865C264.407 177.563 265.337 176.407 266.027 175.588C266.712 174.757 267.171 174.274 267.207 174.304Z" fill="#263238"/>
<path d="M258.233 208.022C258.233 208.022 257.145 198.277 263.344 193.906C263.564 193.753 263.864 193.906 263.858 194.169C263.839 195.74 263.283 200.423 258.233 208.022Z" fill="#C8E2FA"/>
<path d="M262.189 196.853C262.238 196.871 262.03 197.501 261.669 198.51C261.253 199.641 260.764 200.968 260.226 202.435C259.694 203.902 259.205 205.229 258.796 206.36C258.435 207.368 258.215 207.992 258.166 207.98C258.123 207.968 258.252 207.313 258.551 206.28C258.851 205.247 259.315 203.841 259.884 202.306C260.452 200.772 261.003 199.396 261.431 198.412C261.852 197.434 262.146 196.835 262.189 196.853Z" fill="#263238"/>
<path d="M263.656 232.345C263.656 232.345 262.916 222.569 269.268 218.418C269.488 218.271 269.788 218.437 269.776 218.699C269.702 220.271 268.981 224.935 263.656 232.345Z" fill="#C8E2FA"/>
<path d="M268.009 221.325C268.058 221.344 267.826 221.967 267.429 222.964C266.97 224.077 266.438 225.385 265.845 226.834C265.258 228.283 264.726 229.591 264.274 230.704C263.877 231.694 263.638 232.312 263.589 232.299C263.547 232.287 263.699 231.639 264.036 230.618C264.372 229.597 264.885 228.209 265.509 226.693C266.133 225.183 266.732 223.826 267.19 222.86C267.655 221.888 267.967 221.301 268.009 221.325Z" fill="#263238"/>
<path d="M252.535 153.559C252.535 153.559 243.847 149.023 243.676 141.436C243.67 141.167 243.963 141.002 244.184 141.154C245.474 142.047 249.056 145.128 252.535 153.559Z" fill="#C8E2FA"/>
<path d="M245.481 144.041C245.523 144.011 245.927 144.537 246.563 145.399C247.266 146.377 248.097 147.52 249.014 148.786C249.931 150.051 250.763 151.188 251.472 152.166C252.108 153.028 252.505 153.554 252.462 153.591C252.426 153.621 251.961 153.151 251.27 152.325C250.579 151.5 249.674 150.332 248.721 148.999C247.767 147.673 246.936 146.444 246.355 145.545C245.774 144.647 245.444 144.072 245.481 144.041Z" fill="#263238"/>
<path d="M261.871 173.652C261.871 173.652 252.92 169.648 252.291 162.091C252.266 161.828 252.554 161.645 252.78 161.78C254.119 162.593 257.879 165.442 261.871 173.652Z" fill="#C8E2FA"/>
<path d="M254.247 164.58C254.29 164.549 254.724 165.051 255.409 165.87C256.173 166.799 257.071 167.893 258.062 169.104C259.058 170.308 259.957 171.397 260.721 172.326C261.406 173.145 261.834 173.652 261.797 173.689C261.761 173.72 261.265 173.28 260.532 172.497C259.792 171.714 258.82 170.602 257.781 169.336C256.747 168.071 255.843 166.897 255.207 166.029C254.571 165.167 254.21 164.61 254.247 164.58Z" fill="#263238"/>
<path d="M256.718 196.066C256.718 196.066 250.573 188.43 253.453 181.411C253.557 181.167 253.887 181.13 254.028 181.356C254.859 182.689 256.907 186.944 256.718 196.066Z" fill="#C8E2FA"/>
<path d="M254.064 184.514C254.113 184.508 254.278 185.15 254.511 186.195C254.767 187.375 255.067 188.751 255.397 190.279C255.733 191.801 256.039 193.183 256.296 194.357C256.534 195.396 256.681 196.044 256.632 196.063C256.589 196.075 256.351 195.457 256.045 194.424C255.746 193.391 255.385 191.954 255.036 190.359C254.694 188.757 254.425 187.302 254.254 186.244C254.089 185.186 254.015 184.526 254.064 184.514Z" fill="#263238"/>
<path d="M262.807 222.438C262.807 222.438 253.924 218.287 253.422 210.718C253.404 210.455 253.691 210.272 253.917 210.418C255.244 211.25 258.955 214.166 262.807 222.438Z" fill="#C8E2FA"/>
<path d="M255.342 213.238C255.385 213.207 255.813 213.715 256.485 214.546C257.231 215.488 258.111 216.6 259.083 217.823C260.055 219.046 260.936 220.146 261.688 221.088C262.36 221.919 262.776 222.433 262.739 222.469C262.703 222.5 262.214 222.047 261.492 221.259C260.771 220.464 259.811 219.333 258.796 218.049C257.781 216.765 256.901 215.579 256.283 214.699C255.654 213.831 255.299 213.268 255.342 213.238Z" fill="#263238"/>
<path d="M280.492 183.9C280.498 183.9 280.504 183.973 280.504 184.114C280.498 184.285 280.492 184.493 280.486 184.743C280.462 185.33 280.425 186.125 280.382 187.121C280.266 189.212 280.107 192.122 279.917 195.607V195.613V195.626C279.282 199.171 277.478 203.102 275.051 206.923C273.272 209.736 271.407 212.291 269.793 214.669C268.173 217.042 266.804 219.236 265.856 221.18C264.896 223.125 264.34 224.794 264.016 225.961C263.857 226.548 263.741 227.001 263.674 227.319C263.6 227.63 263.557 227.795 263.545 227.789C263.533 227.789 263.551 227.618 263.6 227.3C263.643 226.982 263.741 226.518 263.875 225.925C264.163 224.739 264.688 223.045 265.624 221.07C266.553 219.096 267.91 216.87 269.518 214.48C271.114 212.083 272.972 209.528 274.745 206.728C277.16 202.931 278.958 199.055 279.612 195.564V195.583C279.856 192.098 280.058 189.188 280.205 187.103C280.284 186.113 280.352 185.318 280.394 184.731C280.419 184.48 280.437 184.279 280.455 184.107C280.474 183.967 280.486 183.893 280.492 183.9Z" fill="#263238"/>
<path d="M275.205 206.188C275.205 206.188 278.965 197.134 274.233 191.204C274.068 190.996 273.737 191.057 273.664 191.314C273.248 192.83 272.472 197.482 275.205 206.188Z" fill="#C8E2FA"/>
<path d="M274.52 194.367C274.569 194.361 274.685 195.015 274.82 196.079C274.954 197.142 275.101 198.616 275.217 200.248C275.333 201.88 275.388 203.36 275.388 204.436C275.388 205.512 275.333 206.172 275.284 206.172C275.229 206.172 275.193 205.512 275.132 204.442C275.052 203.244 274.954 201.832 274.85 200.273C274.74 198.714 274.642 197.301 274.557 196.103C274.496 195.033 274.471 194.373 274.52 194.367Z" fill="#263238"/>
<g opacity="0.3">
<g opacity="0.3">
<path opacity="0.3" d="M275.205 206.188C275.205 206.188 278.965 197.134 274.233 191.204C274.068 190.996 273.737 191.057 273.664 191.314C273.248 192.83 272.472 197.482 275.205 206.188Z" fill="black"/>
</g>
</g>
<path d="M263.558 228.009C263.558 228.009 266.572 218.679 261.375 213.152C261.192 212.957 260.868 213.048 260.819 213.305C260.526 214.846 260.128 219.553 263.558 228.009Z" fill="#C8E2FA"/>
<path d="M261.913 216.27C261.962 216.258 262.133 216.906 262.347 217.951C262.567 219.003 262.836 220.458 263.081 222.072C263.331 223.686 263.503 225.159 263.594 226.229C263.68 227.299 263.68 227.965 263.631 227.972C263.576 227.978 263.49 227.317 263.338 226.26C263.16 225.068 262.952 223.674 262.72 222.127C262.488 220.58 262.274 219.186 262.09 217.994C261.944 216.943 261.864 216.282 261.913 216.27Z" fill="#263238"/>
<g opacity="0.3">
<g opacity="0.3">
<path opacity="0.3" d="M263.558 228.009C263.558 228.009 266.572 218.679 261.375 213.152C261.192 212.957 260.868 213.048 260.819 213.305C260.526 214.846 260.128 219.553 263.558 228.009Z" fill="black"/>
</g>
</g>
<path d="M279.997 195.129C279.997 195.129 288.031 189.505 287.218 181.967C287.187 181.704 286.875 181.575 286.679 181.753C285.512 182.804 282.363 186.313 279.997 195.129Z" fill="#C8E2FA"/>
<g opacity="0.3">
<g opacity="0.3">
<path opacity="0.3" d="M279.997 195.129C279.997 195.129 288.031 189.505 287.218 181.967C287.187 181.704 286.875 181.575 286.679 181.753C285.512 182.804 282.363 186.313 279.997 195.129Z" fill="black"/>
</g>
</g>
<path d="M285.762 184.779C285.805 184.804 285.555 185.415 285.096 186.387C284.638 187.353 283.971 188.68 283.195 190.116C282.418 191.559 281.672 192.837 281.092 193.742C280.511 194.647 280.113 195.178 280.071 195.148C280.028 195.117 280.352 194.543 280.865 193.607C281.44 192.55 282.119 191.309 282.865 189.939C283.61 188.564 284.283 187.322 284.858 186.265C285.383 185.329 285.72 184.755 285.762 184.779Z" fill="#263238"/>
<path d="M266.798 218.761C266.798 218.761 276.482 217.251 279.081 210.122C279.172 209.871 278.946 209.621 278.689 209.694C277.179 210.122 272.802 211.889 266.798 218.761Z" fill="#C8E2FA"/>
<g opacity="0.3">
<g opacity="0.3">
<path opacity="0.3" d="M266.798 218.761C266.798 218.761 276.482 217.251 279.081 210.122C279.172 209.871 278.946 209.621 278.689 209.694C277.179 210.122 272.802 211.889 266.798 218.761Z" fill="black"/>
</g>
</g>
<path d="M276.53 212.008C276.561 212.05 276.06 212.485 275.222 213.157C274.385 213.823 273.205 214.722 271.872 215.67C270.539 216.623 269.304 217.443 268.387 217.999C267.47 218.555 266.877 218.855 266.853 218.812C266.828 218.763 267.372 218.39 268.247 217.779C269.231 217.082 270.386 216.269 271.658 215.37C272.93 214.465 274.085 213.646 275.063 212.949C275.944 212.332 276.5 211.965 276.53 212.008Z" fill="#263238"/>
<path d="M257.555 236.586L254.73 255.599H272.338L270.057 236.586H257.555Z" fill="#455A64"/>
<path d="M270.76 242.472C270.76 242.576 267.58 242.656 263.662 242.656C259.737 242.656 256.564 242.576 256.564 242.472C256.564 242.368 259.743 242.289 263.662 242.289C267.58 242.289 270.76 242.375 270.76 242.472Z" fill="#263238"/>
<path d="M271.109 243.992C271.109 244.096 267.826 244.175 263.779 244.175C259.726 244.175 256.449 244.096 256.449 243.992C256.449 243.888 259.732 243.809 263.779 243.809C267.826 243.809 271.109 243.888 271.109 243.992Z" fill="#263238"/>
<path d="M202.642 52.1312C202.642 52.1312 202.477 52.1373 202.165 52.1251C201.847 52.1128 201.383 52.0884 200.765 52.1312C199.542 52.1984 197.714 52.4307 195.556 53.3294C193.423 54.2281 190.928 55.8238 188.941 58.4832C187.957 59.8099 187.132 61.3994 186.63 63.2091C186.147 65.0187 185.982 67.024 186.215 69.0904C186.478 71.1507 187.107 73.2782 188.263 75.2346C188.837 76.2127 189.516 77.1603 190.341 77.9918C191.142 78.8538 192.09 79.6119 193.154 80.1927C194.217 80.7674 195.434 81.1342 196.681 81.0792C197.916 81.0364 199.194 80.6023 200.099 79.7036C201.01 78.8049 201.462 77.4905 201.462 76.1822C201.468 74.8616 201.01 73.5472 200.221 72.4345C198.631 70.203 196.07 68.7052 193.337 67.8921C190.58 67.0912 187.554 67.0667 184.656 67.7698C183.213 68.1427 181.801 68.6991 180.474 69.4327C179.147 70.1725 177.943 71.1384 176.885 72.2511C176.635 72.5446 176.347 72.8074 176.127 73.1192L175.436 74.0485C175.033 74.7088 174.623 75.369 174.311 76.0905C173.663 77.5088 173.211 79.0311 172.985 80.5962C172.575 83.7264 172.954 86.9544 174.22 89.7666C175.442 92.585 177.527 95.006 180.125 96.461C181.422 97.1825 182.852 97.6532 184.307 97.7327C185.756 97.8244 187.205 97.4514 188.434 96.7423C189.663 96.0392 190.69 94.9754 191.228 93.7038C191.76 92.4261 191.754 90.971 191.289 89.7055C190.837 88.4277 189.981 87.3334 188.99 86.453C187.994 85.5788 186.826 84.9185 185.609 84.4906C183.146 83.6836 180.517 83.7264 178.169 84.3622C175.815 85.0041 173.712 86.2146 172.062 87.7675C170.417 89.3265 169.262 91.24 168.565 93.1903C167.152 97.1274 167.513 101.12 168.724 104.176C169.971 107.258 171.952 109.446 173.761 110.895C175.589 112.356 177.246 113.145 178.389 113.591C178.964 113.812 179.404 113.964 179.71 114.05C180.009 114.142 180.162 114.203 180.162 114.203C180.162 114.203 180.003 114.166 179.698 114.081C179.392 114.007 178.946 113.86 178.359 113.653C177.209 113.225 175.528 112.448 173.676 110.993C171.842 109.55 169.83 107.349 168.552 104.244C167.311 101.156 166.926 97.1152 168.345 93.1169C169.048 91.13 170.215 89.1858 171.89 87.5902C173.566 86.0067 175.699 84.7657 178.096 84.1115C180.486 83.4635 183.164 83.4085 185.701 84.2277C186.954 84.6679 188.153 85.3404 189.18 86.2391C190.201 87.1378 191.087 88.2688 191.564 89.6077C192.047 90.9343 192.065 92.4688 191.503 93.82C190.934 95.1711 189.864 96.2715 188.587 97.0113C187.309 97.7449 185.799 98.1362 184.295 98.0445C182.791 97.965 181.312 97.482 179.979 96.7362C177.313 95.2444 175.186 92.7684 173.939 89.895C172.649 87.0216 172.263 83.7386 172.679 80.5534C172.911 78.9577 173.37 77.4049 174.036 75.9621C174.354 75.2284 174.776 74.5559 175.186 73.8773L175.889 72.9236C176.115 72.5996 176.408 72.3306 176.665 72.0371C177.747 70.9 178.982 69.9157 180.333 69.1637C181.684 68.4117 183.121 67.8554 184.595 67.4703C187.547 66.755 190.629 66.7794 193.441 67.5986C196.229 68.4301 198.839 69.9524 200.484 72.2633C201.297 73.4127 201.78 74.7944 201.768 76.176C201.768 77.5516 201.291 78.9394 200.313 79.8992C199.341 80.8591 197.996 81.3115 196.706 81.3482C195.403 81.3971 194.132 81.0119 193.044 80.4189C191.949 79.8198 190.983 79.0372 190.17 78.163C189.327 77.3071 188.642 76.3411 188.061 75.3507C186.893 73.3577 186.264 71.1934 186.007 69.1087C185.781 67.0117 185.952 64.982 186.453 63.1479C186.967 61.3199 187.81 59.706 188.813 58.3671C190.837 55.6832 193.368 54.0936 195.526 53.2011C197.708 52.3085 199.555 52.1006 200.777 52.0517C201.395 52.0211 201.866 52.0517 202.183 52.0762C202.477 52.1128 202.642 52.1312 202.642 52.1312Z" fill="#263238"/>
<path d="M223.056 113.305H137.336V179.418H223.056V113.305Z" fill="#AAC7EF"/>
<path d="M137.336 113.306L153.171 128.076H237.435L223.056 113.306H137.336Z" fill="#AAC7EF"/>
<path d="M137.336 113.307C138.883 113.307 174.287 113.239 223.055 113.148H223.123L223.171 113.197C227.763 117.91 232.531 122.807 237.404 127.808C237.453 127.857 237.502 127.912 237.551 127.961L237.814 128.23H237.435C202.88 128.206 172.214 128.181 153.17 128.169H153.134L153.109 128.144C143.199 118.821 137.856 113.796 137.336 113.307C137.862 113.79 143.242 118.772 153.232 128.004L153.164 127.979C172.208 127.967 202.874 127.943 237.428 127.918L237.312 128.187C237.263 128.138 237.214 128.089 237.166 128.034C232.293 123.027 227.53 118.13 222.939 113.417L223.049 113.466C174.287 113.374 138.883 113.313 137.336 113.307Z" fill="#263238"/>
<path d="M163.087 143.792C162.182 143.792 161.351 144.612 161.339 145.516C161.32 146.421 162.121 147.265 163.026 147.302C163.931 147.332 164.793 146.55 164.842 145.645C164.891 144.74 164.126 143.866 163.222 143.799" fill="#263238"/>
<path d="M183.324 143.792C182.419 143.792 181.587 144.612 181.575 145.516C181.557 146.421 182.358 147.265 183.262 147.302C184.167 147.332 185.029 146.55 185.078 145.645C185.127 144.74 184.363 143.866 183.458 143.799" fill="#263238"/>
<path d="M183.452 159.614C183.36 159.65 183.226 157.957 181.752 155.811C181.031 154.747 179.949 153.616 178.512 152.705C177.088 151.788 175.272 151.134 173.315 151.061C171.359 151.024 169.513 151.58 168.039 152.418C166.554 153.249 165.417 154.319 164.634 155.34C163.051 157.401 162.818 159.082 162.733 159.039C162.72 159.039 162.739 158.935 162.782 158.752C162.837 158.568 162.873 158.281 163.008 157.939C163.228 157.242 163.68 156.263 164.457 155.2C165.227 154.136 166.383 153.023 167.893 152.155C169.397 151.281 171.298 150.694 173.322 150.737C175.345 150.81 177.21 151.501 178.665 152.455C180.126 153.408 181.22 154.582 181.929 155.683C182.651 156.783 183.042 157.786 183.226 158.495C183.342 158.843 183.366 159.131 183.403 159.32C183.452 159.516 183.464 159.614 183.452 159.614Z" fill="#263238"/>
<path opacity="0.5" d="M137.532 114.032L152.694 133.253H223.056V128.075H153.171L137.532 114.032Z" fill="black"/>
<path d="M206.152 179.272C206.066 179.272 205.993 167.773 205.993 153.589C205.993 139.399 206.066 127.906 206.152 127.906C206.237 127.906 206.311 139.405 206.311 153.589C206.317 167.773 206.243 179.272 206.152 179.272Z" fill="#263238"/>
<path d="M219.614 164.281H212.057V172.822H219.614V164.281Z" fill="#F5F5F5"/>
<path d="M137.336 113.305L119.741 128.075H137.336V113.305Z" fill="#AAC7EF"/>
<g opacity="0.4">
<path opacity="0.4" d="M137.336 113.305L119.741 128.075H137.336V113.305Z" fill="black"/>
</g>
<path d="M225.586 179.418H127.028V255.435H225.586V179.418Z" fill="#C8E2FA"/>
<path opacity="0.3" d="M225.586 179.418H127.028V255.435H225.586V179.418Z" fill="black"/>
<path d="M200.894 254.897C200.808 254.897 200.735 237.956 200.735 217.053C200.735 196.151 200.808 179.21 200.894 179.21C200.979 179.21 201.053 196.151 201.053 217.053C201.053 237.956 200.979 254.897 200.894 254.897Z" fill="#263238"/>
<path d="M217.229 238.134H209.673V246.675H217.229V238.134Z" fill="#F5F5F5"/>
<path d="M168.29 179.62H157.096V195.839H168.29V179.62Z" fill="#263238"/>
<path d="M168.29 238.989H157.096V255.208H168.29V238.989Z" fill="#263238"/>
<path d="M224.731 179.419C224.731 179.425 224.645 179.432 224.48 179.438C224.297 179.444 224.052 179.444 223.74 179.456C223.074 179.462 222.114 179.474 220.891 179.487C218.403 179.499 214.833 179.517 210.425 179.536C201.572 179.548 189.364 179.566 175.889 179.578C162.402 179.56 150.2 179.542 141.347 179.529C136.939 179.511 133.369 179.493 130.881 179.481C129.658 179.468 128.704 179.456 128.032 179.45C127.72 179.444 127.475 179.438 127.292 179.432C127.127 179.426 127.041 179.419 127.041 179.413C127.041 179.407 127.127 179.401 127.292 179.395C127.475 179.389 127.72 179.389 128.032 179.377C128.698 179.37 129.658 179.358 130.881 179.346C133.369 179.334 136.939 179.315 141.347 179.297C150.2 179.285 162.409 179.267 175.889 179.248C189.37 179.267 201.572 179.285 210.425 179.297C214.833 179.322 218.403 179.334 220.891 179.346C222.114 179.358 223.068 179.37 223.74 179.377C224.052 179.383 224.297 179.389 224.48 179.395C224.645 179.413 224.731 179.419 224.731 179.419Z" fill="#263238"/>
<path d="M55.8232 47.8092C55.114 47.638 51.6965 46.7943 45.0938 45.1742L45.1733 45.162C42.8134 46.6659 39.616 47.8825 35.9111 47.9376C34.0648 47.9315 32.1146 47.7114 30.1704 47.1C28.2263 46.4948 26.3127 45.4921 24.5765 44.1349C21.0978 41.4449 18.3956 37.1348 17.8087 32.1767C17.5091 29.7129 17.7109 27.1207 18.4751 24.6386C19.2576 22.1625 20.6026 19.821 22.4184 17.8463C23.3354 16.8009 24.4236 15.9389 25.5241 15.138C26.1049 14.7773 26.6734 14.4105 27.2726 14.0926L28.1835 13.6524L28.6359 13.4323L29.1067 13.2611C31.6071 12.289 34.2666 11.9161 36.8221 12.0873C39.3775 12.2524 41.8291 12.9677 43.9689 14.0926C46.1148 15.2175 47.955 16.7459 49.3978 18.476C50.8467 20.2123 51.8982 22.1503 52.5646 24.1067C53.231 26.0691 53.5367 28.0377 53.555 29.9024C53.5795 33.6439 52.4057 36.8536 50.9812 39.2012V39.1034C53.983 44.4895 55.4869 47.2101 55.8232 47.8092C55.4808 47.2162 53.9219 44.5262 50.8284 39.2012L50.7978 39.1523L50.8284 39.1034C52.2162 36.7741 53.3472 33.595 53.3044 29.9085C53.2799 28.0744 52.9681 26.1303 52.3017 24.2045C51.6354 22.2787 50.596 20.3774 49.1655 18.6778C47.741 16.9782 45.9314 15.4865 43.8222 14.386C41.7191 13.2856 39.3164 12.5886 36.8037 12.4297C34.2971 12.2646 31.6866 12.6375 29.2412 13.5912L28.7765 13.7624L28.3302 13.9764L27.4376 14.4105C26.8507 14.7223 26.2944 15.083 25.7197 15.4376C24.6376 16.2201 23.5738 17.0699 22.6751 18.0909C20.8961 20.0228 19.5755 22.3215 18.8052 24.7486C18.0532 27.1818 17.8515 29.719 18.1449 32.14C18.7135 37.0064 21.3546 41.2432 24.766 43.8965C26.4717 45.2353 28.3425 46.2258 30.256 46.831C32.1696 47.4363 34.0893 47.6625 35.905 47.6808C39.5548 47.6441 42.7156 46.4642 45.0632 44.9969L45.0999 44.9725L45.1427 44.9847C51.7148 46.721 55.114 47.6197 55.8232 47.8092Z" fill="#263238"/>
<path d="M34.1448 22.0288L34.7134 30.9914C34.7623 31.725 35.3431 32.3058 36.0767 32.3486C36.8471 32.3975 37.5257 31.8289 37.6112 31.0586L38.6078 22.0471C38.6811 21.3624 38.1431 20.7694 37.4584 20.7816L35.2697 20.8122C34.6156 20.8244 34.102 21.3808 34.1448 22.0288Z" fill="#C8E2FA"/>
<path d="M38.4544 37.3988C38.0753 38.5481 36.8343 39.1656 35.691 38.7866C34.5416 38.4075 33.9242 37.1665 34.3032 36.0232C34.6823 34.8739 35.9233 34.2564 37.0666 34.6354C38.2159 35.0084 38.8334 36.2494 38.4544 37.3988Z" fill="#C8E2FA"/>
<path d="M82.968 99.9918L20.2801 156.824C16.6172 160.145 10.9547 159.868 7.63393 156.205C4.31314 152.542 4.59056 146.879 8.25349 143.559L70.9414 86.7261C74.6043 83.4053 80.2668 83.6827 83.5876 87.3456C86.9081 91.0156 86.631 96.6711 82.968 99.9918Z" fill="#EEECEC"/>
<path d="M82.968 99.9915L72.7712 109.236L60.7002 96.017L70.9447 86.7294C74.6076 83.4086 80.2701 83.686 83.5909 87.349C86.908 91.0152 86.631 96.6707 82.968 99.9915Z" fill="#599AF2" fill-opacity="0.46"/>
<path d="M76.484 98.0273C74.8853 99.4766 72.4036 99.355 70.9543 97.7564C69.505 96.1578 69.6266 93.676 71.2252 92.2267C72.8239 90.7774 75.3056 90.899 76.7549 92.4976C77.4563 93.2713 77.8171 94.2735 77.7624 95.3185C77.7114 96.3601 77.2576 97.3259 76.484 98.0273ZM71.8867 92.9564C70.6914 94.04 70.6007 95.8926 71.6843 97.0879C72.768 98.2832 74.6205 98.374 75.8158 97.2903C76.3952 96.7651 76.735 96.0495 76.7734 95.2665C76.8118 94.4835 76.5435 93.7381 76.0182 93.1588C74.9379 91.9671 73.082 91.8727 71.8867 92.9564Z" fill="#EEECEC"/>
<path d="M81.9877 95.8968C81.8924 95.9833 81.7675 96.0297 81.631 96.0265L77.2408 95.8114C76.9682 95.7981 76.7587 95.5671 76.7721 95.2944C76.7855 95.0218 77.0165 94.8124 77.2891 94.8257L81.6793 95.0408C81.9519 95.0542 82.1613 95.2852 82.148 95.5578C82.1415 95.6906 82.083 95.8104 81.9877 95.8968Z" fill="#EEECEC"/>
<path opacity="0.21" d="M341.513 95.1406C349.514 87.1397 349.514 74.1675 341.513 66.1665C333.512 58.1656 320.54 58.1656 312.539 66.1665C304.538 74.1675 304.538 87.1397 312.539 95.1407C320.54 103.142 333.512 103.142 341.513 95.1406Z" fill="white"/>
<path opacity="0.76" d="M310.972 82.1257C310.257 82.1257 309.677 81.5462 309.677 80.8308C309.677 70.4946 318.088 62.0876 328.421 62.0876C329.136 62.0876 329.716 62.6671 329.716 63.3825C329.716 64.0979 329.136 64.6774 328.421 64.6774C319.512 64.6774 312.267 71.9254 312.267 80.8308C312.267 81.5462 311.688 82.1257 310.972 82.1257Z" fill="white"/>
<path opacity="0.26" d="M292.408 123.426C277.654 123.426 265.649 111.421 265.649 96.6668C265.649 81.9123 277.654 69.9079 292.408 69.9079C307.163 69.9079 319.167 81.9123 319.167 96.6668C319.167 111.421 307.163 123.426 292.408 123.426ZM292.408 71.5432C278.555 71.5432 267.289 82.814 267.289 96.6627C267.289 110.511 278.56 121.782 292.408 121.782C306.257 121.782 317.528 110.511 317.528 96.6627C317.528 82.814 306.257 71.5432 292.408 71.5432Z" fill="#3E479B"/>
<g opacity="0.57">
<path d="M315.995 115.533C316.032 115.496 316.077 115.464 316.118 115.431C320.069 110.316 322.421 103.906 322.421 96.9467C322.421 80.2291 308.868 66.6755 292.15 66.6755C275.432 66.6755 261.879 80.2291 261.879 96.9467C261.879 113.664 275.432 127.218 292.15 127.218C299.085 127.218 305.466 124.878 310.568 120.956L314.069 117.455L315.995 115.533ZM292.154 122.89C277.826 122.89 266.215 111.275 266.215 96.9508C266.215 82.6226 277.83 71.0117 292.154 71.0117C306.478 71.0117 318.093 82.6267 318.093 96.9508C318.093 111.275 306.478 122.89 292.154 122.89Z" fill="#979DD2"/>
<path d="M292.154 127.628C275.236 127.628 261.473 113.866 261.473 96.9472C261.473 80.0288 275.236 66.2661 292.154 66.2661C309.072 66.2661 322.835 80.0288 322.835 96.9472C322.835 103.792 320.626 110.271 316.446 115.681L316.368 115.759C316.327 115.788 316.306 115.804 316.29 115.821L310.823 121.28C305.417 125.436 298.962 127.628 292.154 127.628ZM292.154 67.0899C275.69 67.0899 262.293 80.4837 262.293 96.9513C262.293 113.419 275.686 126.813 292.154 126.813C298.773 126.813 305.048 124.682 310.302 120.653L315.708 115.247C315.745 115.21 315.786 115.173 315.831 115.144C319.88 109.886 322.015 103.595 322.015 96.9513C322.015 80.4837 308.618 67.0899 292.154 67.0899ZM292.154 123.3C277.625 123.3 265.805 111.48 265.805 96.9513C265.805 82.4223 277.625 70.6023 292.154 70.6023C306.683 70.6023 318.503 82.4223 318.503 96.9513C318.503 111.48 306.683 123.3 292.154 123.3ZM292.154 71.4179C278.076 71.4179 266.625 82.869 266.625 96.9472C266.625 111.025 278.076 122.477 292.154 122.477C306.232 122.477 317.683 111.025 317.683 96.9472C317.683 82.8731 306.228 71.4179 292.154 71.4179Z" fill="#979DD2"/>
<path d="M315.245 120.267L314.073 119.095C313.622 118.644 313.622 117.911 314.073 117.46L310.573 120.96L310.516 121.017C310.065 121.468 310.065 122.202 310.516 122.653L311.942 124.079C312.409 123.292 313.782 121.747 315.245 120.267Z" fill="#7B8DC9"/>
<path d="M314.073 117.454C313.622 117.905 313.622 118.639 314.073 119.09L315.245 120.262C316.663 118.832 318.155 117.463 318.995 116.893L317.63 115.528C317.217 115.114 316.569 115.086 316.118 115.426C316.077 115.459 316.032 115.487 315.995 115.528L314.073 117.454Z" fill="#4C65BA"/>
<path opacity="0.43" d="M314.073 117.454C313.622 117.905 313.622 118.639 314.073 119.09L315.245 120.262C316.663 118.832 318.155 117.463 318.995 116.893L317.63 115.528C317.217 115.114 316.569 115.086 316.118 115.426C316.077 115.459 316.032 115.487 315.995 115.528L314.073 117.454Z" fill="#7178BB"/>
<path d="M340.959 138.194L319.643 116.644C319.565 116.566 319.332 116.669 318.996 116.898C318.156 117.468 316.664 118.833 315.246 120.267C313.782 121.747 312.409 123.288 311.938 124.079C311.786 124.337 311.725 124.513 311.795 124.579L333.111 146.128C335.279 148.321 338.791 148.321 340.959 146.128C343.127 143.936 343.127 140.386 340.959 138.194Z" fill="#9CC5FD"/>
<path opacity="0.14" d="M340.959 138.195L319.643 116.645C319.356 116.354 316.926 118.531 314.84 120.682C313.065 122.51 338.791 148.318 340.959 146.13C343.127 143.937 343.127 140.388 340.959 138.195Z" fill="#3E479B"/>
</g>
</svg>
